<svg viewBox="0 0 1400 840" xmlns="http://www.w3.org/2000/svg">
  <!-- Background -->
  <rect width="1400" height="840" fill="#ffffff"/>
  
  <!-- Ocean background -->
  <defs>
    <style>
      .ocean { fill: #f0f9ff; }
      .land { fill: #5DB3FF; stroke: #ffffff; stroke-width: 1; }
      .label { font-family: 'Segoe UI', Arial, sans-serif; font-size: 14px; fill: #0066cc; text-anchor: middle; }
      .title { font-family: 'Segoe UI', Arial, sans-serif; font-size: 28px; font-weight: bold; fill: #0066cc; text-anchor: middle; }
    </style>
  </defs>
  
  <!-- Ocean -->
  <rect class="ocean" width="1400" height="840"/>
  
  <!-- Continents - Simplified polygons -->
  <!-- North America -->
  <path class="land" d="M 150 120 L 280 100 L 320 180 L 280 280 L 200 250 L 140 200 Z"/>
  
  <!-- South America -->
  <path class="land" d="M 280 280 L 320 300 L 340 500 L 320 600 L 280 580 L 250 400 Z"/>
  
  <!-- Europe -->
  <path class="land" d="M 580 80 L 720 90 L 740 180 L 680 200 L 620 160 Z"/>
  
  <!-- Africa -->
  <path class="land" d="M 680 200 L 780 180 L 820 350 L 800 600 L 720 620 L 680 500 Z"/>
  
  <!-- Middle East -->
  <path class="land" d="M 780 240 L 850 260 L 880 350 L 820 340 Z"/>
  
  <!-- Russia -->
  <path class="land" d="M 700 80 L 950 100 L 980 200 L 850 220 L 720 150 Z"/>
  
  <!-- Asia -->
  <path class="land" d="M 900 240 L 1100 200 L 1150 400 L 1050 420 L 950 340 Z"/>
  
  <!-- China -->
  <path class="land" d="M 950 200 L 1050 180 L 1080 300 L 980 310 Z"/>
  
  <!-- Southeast Asia -->
  <path class="land" d="M 1000 350 L 1100 340 L 1120 420 L 1020 430 Z"/>
  
  <!-- India -->
  <path class="land" d="M 880 280 L 950 270 L 960 380 L 900 390 Z"/>
  
  <!-- Australia -->
  <path class="land" d="M 1100 520 L 1160 540 L 1140 620 L 1080 600 Z"/>
  
  <!-- New Zealand -->
  <path class="land" d="M 1180 620 L 1210 610 L 1220 680 L 1190 690 Z"/>
  
  <!-- Japan -->
  <path class="land" d="M 1130 240 L 1160 250 L 1150 320 L 1120 310 Z"/>
  
  <!-- Indonesia -->
  <path class="land" d="M 1040 420 L 1120 430 L 1100 500 L 1040 490 Z"/>
  
  <!-- Greenland -->
  <path class="land" d="M 450 60 L 500 70 L 495 160 L 450 140 Z"/>
  
  <!-- Iceland -->
  <path class="land" d="M 520 100 L 540 105 L 535 130 L 520 125 Z"/>
  
  <!-- UK and Ireland -->
  <path class="land" d="M 560 130 L 580 135 L 575 160 L 560 155 Z"/>
  
  <!-- Scandinavia -->
  <path class="land" d="M 640 80 L 680 90 L 680 170 L 640 160 Z"/>
  
  <!-- Italy -->
  <path class="land" d="M 660 160 L 680 165 L 675 200 L 660 195 Z"/>
  
  <!-- Greece -->
  <path class="land" d="M 700 180 L 720 185 L 715 210 L 700 205 Z"/>
  
  <!-- Turkey -->
  <path class="land" d="M 730 180 L 780 175 L 780 220 L 730 220 Z"/>
  
  <!-- Peru -->
  <path class="land" d="M 240 350 L 280 340 L 290 480 L 250 490 Z"/>
  
  <!-- Brazil -->
  <path class="land" d="M 320 320 L 420 300 L 440 480 L 340 500 Z"/>
  
  <!-- Central and North Africa -->
  <path class="land" d="M 680 200 L 780 180 L 800 240 L 720 240 Z"/>
  
  <!-- Southern Africa -->
  <path class="land" d="M 720 500 L 800 480 L 810 600 L 740 620 Z"/>
  
  <!-- Central Asia -->
  <path class="land" d="M 820 200 L 920 180 L 950 240 L 880 260 Z"/>
  
  <!-- Kazakhstan -->
  <path class="land" d="M 850 140 L 950 130 L 960 200 L 880 210 Z"/>
  
  <!-- Canada expansion -->
  <path class="land" d="M 180 100 L 250 95 L 260 150 L 200 140 Z"/>
  
  <!-- Mexico -->
  <path class="land" d="M 200 240 L 240 235 L 245 290 L 205 285 Z"/>
  
  <!-- Colombia/Venezuela -->
  <path class="land" d="M 260 300 L 300 290 L 310 340 L 270 345 Z"/>
  
  <!-- Scandinavia extension -->
  <path class="land" d="M 680 80 L 720 75 L 730 140 L 690 140 Z"/>
  
  <!-- Poland/Eastern Europe -->
  <path class="land" d="M 700 140 L 750 135 L 760 180 L 710 180 Z"/>
  
  <!-- Spain/Portugal -->
  <path class="land" d="M 600 160 L 640 155 L 645 200 L 605 200 Z"/>
  
  <!-- France -->
  <path class="land" d="M 620 140 L 660 135 L 665 175 L 625 175 Z"/>
  
  <!-- Germany -->
  <path class="land" d="M 660 125 L 700 120 L 705 160 L 665 160 Z"/>
  
  <!-- Vietnam/Thailand region -->
  <path class="land" d="M 1020 360 L 1080 350 L 1090 410 L 1030 420 Z"/>
  
  <!-- Malaysia -->
  <path class="land" d="M 1050 420 L 1080 425 L 1075 470 L 1050 465 Z"/>
  
  <!-- Philippines -->
  <path class="land" d="M 1100 360 L 1120 365 L 1115 410 L 1100 405 Z"/>
  
  <!-- Mongolia -->
  <path class="land" d="M 950 140 L 1020 130 L 1030 190 L 960 200 Z"/>
  
  <!-- Siberia north -->
  <path class="land" d="M 900 80 L 1050 70 L 1080 140 L 950 140 Z"/>
  
  <!-- Title -->
  <text class="title" x="700" y="780">Global Visa Guide</text>
  <text style="font-family: 'Segoe UI', Arial, sans-serif; font-size: 16px; fill: #0066cc; text-anchor: middle;" x="700" y="810">Covering 195+ Countries Worldwide</text>
  
  <!-- Zoom controls appearance (right side) -->
  <g opacity="0.5">
    <rect x="1320" y="400" width="40" height="40" rx="4" fill="#e0e0e0"/>
    <text style="font-size: 24px; fill: #666; text-anchor: middle;" x="1340" y="425">+</text>
  </g>
  <g opacity="0.5">
    <rect x="1320" y="450" width="40" height="40" rx="4" fill="#e0e0e0"/>
    <text style="font-size: 24px; fill: #666; text-anchor: middle;" x="1340" y="475">−</text>
  </g>
</svg>